<?xml version="1.0" encoding="UTF-8" standalone="no"?>
<!DOCTYPE svg PUBLIC "-//W3C//DTD SVG 1.1//EN"
 "http://www.w3.org/Graphics/SVG/1.1/DTD/svg11.dtd">
<!-- Generated by graphviz version 3.0.0 (20220226.1711)
 -->
<!-- Title: Database Structure Pages: 1 -->
<svg width="223pt" height="1064pt"
 viewBox="0.00 0.00 223.00 1063.50" xmlns="http://www.w3.org/2000/svg" xmlns:xlink="http://www.w3.org/1999/xlink">
<g id="graph0" class="graph" transform="scale(1 1) rotate(0) translate(4 1059.5)">
<title>Database Structure</title>
<polygon fill="white" stroke="transparent" points="-4,4 -4,-1059.5 219,-1059.5 219,4 -4,4"/>
<text text-anchor="middle" x="107.5" y="-1040.3" font-family="Helvetica,sans-Serif" font-size="14.00">ER Diagram: flTracker</text>
<!-- active_encounter_sequence -->
<g id="node1" class="node">
<title>active_encounter_sequence</title>
<polygon fill="#dddddd" stroke="transparent" points="30.5,-25 30.5,-46 185.5,-46 185.5,-25 30.5,-25"/>
<polygon fill="none" stroke="black" points="30.5,-25 30.5,-46 185.5,-46 185.5,-25 30.5,-25"/>
<text text-anchor="start" x="33.5" y="-31.8" font-family="Times,serif" font-size="14.00">active_encounter_sequence</text>
<polygon fill="none" stroke="black" points="30.5,-4 30.5,-25 185.5,-25 185.5,-4 30.5,-4"/>
<text text-anchor="start" x="65.5" y="-11.8" font-family="Times,serif" font-size="14.00">next_val:</text>
<text text-anchor="start" x="116.5" y="-11.8" font-family="Helvetica,sans-Serif" font-style="oblique" font-size="10.00">BIGINT</text>
</g>
<!-- active_encounters -->
<g id="node2" class="node">
<title>active_encounters</title>
<polygon fill="#dddddd" stroke="transparent" points="55.5,-114 55.5,-135 159.5,-135 159.5,-114 55.5,-114"/>
<polygon fill="none" stroke="black" points="55.5,-114 55.5,-135 159.5,-135 159.5,-114 55.5,-114"/>
<text text-anchor="start" x="58.5" y="-120.8" font-family="Times,serif" font-size="14.00">active_encounters</text>
<polygon fill="none" stroke="black" points="55.5,-93 55.5,-114 159.5,-114 159.5,-93 55.5,-93"/>
<text text-anchor="start" x="83" y="-100.8" font-family="Times,serif" font-size="14.00">id:</text>
<text text-anchor="start" x="98" y="-100.8" font-family="Helvetica,sans-Serif" font-style="oblique" font-size="10.00">BIGINT</text>
<polygon fill="none" stroke="black" points="55.5,-72 55.5,-93 159.5,-93 159.5,-72 55.5,-72"/>
<text text-anchor="start" x="69" y="-79.8" font-family="Times,serif" font-size="14.00">type:</text>
<text text-anchor="start" x="97" y="-79.8" font-family="Helvetica,sans-Serif" font-style="oblique" font-size="10.00">VARCHAR</text>
</g>
<!-- active_encounters_active_monsters -->
<g id="node3" class="node">
<title>active_encounters_active_monsters</title>
<polygon fill="#dddddd" stroke="transparent" points="8.5,-203 8.5,-224 207.5,-224 207.5,-203 8.5,-203"/>
<polygon fill="none" stroke="black" points="8.5,-203 8.5,-224 207.5,-224 207.5,-203 8.5,-203"/>
<text text-anchor="start" x="11.5" y="-209.8" font-family="Times,serif" font-size="14.00">active_encounters_active_monsters</text>
<polygon fill="none" stroke="black" points="8.5,-182 8.5,-203 207.5,-203 207.5,-182 8.5,-182"/>
<text text-anchor="start" x="34" y="-189.8" font-family="Times,serif" font-size="14.00">active_encounter_id:</text>
<text text-anchor="start" x="148" y="-189.8" font-family="Helvetica,sans-Serif" font-style="oblique" font-size="10.00">BIGINT</text>
<polygon fill="none" stroke="black" points="8.5,-161 8.5,-182 207.5,-182 207.5,-161 8.5,-161"/>
<text text-anchor="start" x="36" y="-168.8" font-family="Times,serif" font-size="14.00">active_monsters_id:</text>
<text text-anchor="start" x="146" y="-168.8" font-family="Helvetica,sans-Serif" font-style="oblique" font-size="10.00">BIGINT</text>
</g>
<!-- active_monsters -->
<g id="node4" class="node">
<title>active_monsters</title>
<polygon fill="#dddddd" stroke="transparent" points="30.5,-482 30.5,-503 184.5,-503 184.5,-482 30.5,-482"/>
<polygon fill="none" stroke="black" points="30.5,-482 30.5,-503 184.5,-503 184.5,-482 30.5,-482"/>
<text text-anchor="start" x="63" y="-488.8" font-family="Times,serif" font-size="14.00">active_monsters</text>
<polygon fill="none" stroke="black" points="30.5,-461 30.5,-482 184.5,-482 184.5,-461 30.5,-461"/>
<text text-anchor="start" x="83" y="-468.8" font-family="Times,serif" font-size="14.00">id:</text>
<text text-anchor="start" x="98" y="-468.8" font-family="Helvetica,sans-Serif" font-style="oblique" font-size="10.00">BIGINT</text>
<polygon fill="none" stroke="black" points="30.5,-440 30.5,-461 184.5,-461 184.5,-440 30.5,-440"/>
<text text-anchor="start" x="79.5" y="-447.8" font-family="Times,serif" font-size="14.00">agility:</text>
<text text-anchor="start" x="118.5" y="-447.8" font-family="Helvetica,sans-Serif" font-style="oblique" font-size="10.00">INT</text>
<polygon fill="none" stroke="black" points="30.5,-419 30.5,-440 184.5,-440 184.5,-419 30.5,-419"/>
<text text-anchor="start" x="61" y="-426.8" font-family="Times,serif" font-size="14.00">armor_bonus:</text>
<text text-anchor="start" x="137" y="-426.8" font-family="Helvetica,sans-Serif" font-style="oblique" font-size="10.00">INT</text>
<polygon fill="none" stroke="black" points="30.5,-398 30.5,-419 184.5,-419 184.5,-398 30.5,-398"/>
<text text-anchor="start" x="73" y="-405.8" font-family="Times,serif" font-size="14.00">empathy:</text>
<text text-anchor="start" x="125" y="-405.8" font-family="Helvetica,sans-Serif" font-style="oblique" font-size="10.00">INT</text>
<polygon fill="none" stroke="black" points="30.5,-377 30.5,-398 184.5,-398 184.5,-377 30.5,-377"/>
<text text-anchor="start" x="67.5" y="-384.8" font-family="Times,serif" font-size="14.00">movement:</text>
<text text-anchor="start" x="130.5" y="-384.8" font-family="Helvetica,sans-Serif" font-style="oblique" font-size="10.00">INT</text>
<polygon fill="none" stroke="black" points="30.5,-356 30.5,-377 184.5,-377 184.5,-356 30.5,-356"/>
<text text-anchor="start" x="66" y="-363.8" font-family="Times,serif" font-size="14.00">name:</text>
<text text-anchor="start" x="100" y="-363.8" font-family="Helvetica,sans-Serif" font-style="oblique" font-size="10.00">VARCHAR</text>
<polygon fill="none" stroke="black" points="30.5,-335 30.5,-356 184.5,-356 184.5,-335 30.5,-335"/>
<text text-anchor="start" x="66.5" y="-342.8" font-family="Times,serif" font-size="14.00">skills:</text>
<text text-anchor="start" x="99.5" y="-342.8" font-family="Helvetica,sans-Serif" font-style="oblique" font-size="10.00">VARCHAR</text>
<polygon fill="none" stroke="black" points="30.5,-314 30.5,-335 184.5,-335 184.5,-314 30.5,-314"/>
<text text-anchor="start" x="75" y="-321.8" font-family="Times,serif" font-size="14.00">strength:</text>
<text text-anchor="start" x="123" y="-321.8" font-family="Helvetica,sans-Serif" font-style="oblique" font-size="10.00">INT</text>
<polygon fill="none" stroke="black" points="30.5,-293 30.5,-314 184.5,-314 184.5,-293 30.5,-293"/>
<text text-anchor="start" x="56.5" y="-300.8" font-family="Times,serif" font-size="14.00">weapon_bonus:</text>
<text text-anchor="start" x="141.5" y="-300.8" font-family="Helvetica,sans-Serif" font-style="oblique" font-size="10.00">INT</text>
<polygon fill="none" stroke="black" points="30.5,-272 30.5,-293 184.5,-293 184.5,-272 30.5,-272"/>
<text text-anchor="start" x="85.5" y="-279.8" font-family="Times,serif" font-size="14.00">wits:</text>
<text text-anchor="start" x="112.5" y="-279.8" font-family="Helvetica,sans-Serif" font-style="oblique" font-size="10.00">INT</text>
<polygon fill="none" stroke="black" points="30.5,-251 30.5,-272 184.5,-272 184.5,-251 30.5,-251"/>
<text text-anchor="start" x="33.5" y="-258.8" font-family="Times,serif" font-size="14.00">active_encounter_id:</text>
<text text-anchor="start" x="147.5" y="-258.8" font-family="Helvetica,sans-Serif" font-style="oblique" font-size="10.00">BIGINT</text>
</g>
<!-- encounter_monster_quantities -->
<g id="node5" class="node">
<title>encounter_monster_quantities</title>
<polygon fill="#dddddd" stroke="transparent" points="22.5,-592 22.5,-613 192.5,-613 192.5,-592 22.5,-592"/>
<polygon fill="none" stroke="black" points="22.5,-592 22.5,-613 192.5,-613 192.5,-592 22.5,-592"/>
<text text-anchor="start" x="25.5" y="-598.8" font-family="Times,serif" font-size="14.00">encounter_monster_quantities</text>
<polygon fill="none" stroke="black" points="22.5,-571 22.5,-592 192.5,-592 192.5,-571 22.5,-571"/>
<text text-anchor="start" x="53" y="-578.8" font-family="Times,serif" font-size="14.00">encounter_id:</text>
<text text-anchor="start" x="128" y="-578.8" font-family="Helvetica,sans-Serif" font-style="oblique" font-size="10.00">BIGINT</text>
<polygon fill="none" stroke="black" points="22.5,-550 22.5,-571 192.5,-571 192.5,-550 22.5,-550"/>
<text text-anchor="start" x="45" y="-557.8" font-family="Times,serif" font-size="14.00">monster_quantities:</text>
<text text-anchor="start" x="153" y="-557.8" font-family="Helvetica,sans-Serif" font-style="oblique" font-size="10.00">INT</text>
<polygon fill="none" stroke="black" points="22.5,-529 22.5,-550 192.5,-550 192.5,-529 22.5,-529"/>
<text text-anchor="start" x="32" y="-536.8" font-family="Times,serif" font-size="14.00">monster_quantities_key:</text>
<text text-anchor="start" x="166" y="-536.8" font-family="Helvetica,sans-Serif" font-style="oblique" font-size="10.00">INT</text>
</g>
<!-- encounters -->
<g id="node6" class="node">
<title>encounters</title>
<polygon fill="#dddddd" stroke="transparent" points="63.5,-681 63.5,-702 152.5,-702 152.5,-681 63.5,-681"/>
<polygon fill="none" stroke="black" points="63.5,-681 63.5,-702 152.5,-702 152.5,-681 63.5,-681"/>
<text text-anchor="start" x="78.5" y="-687.8" font-family="Times,serif" font-size="14.00">encounters</text>
<polygon fill="none" stroke="black" points="63.5,-660 63.5,-681 152.5,-681 152.5,-660 63.5,-660"/>
<text text-anchor="start" x="83.5" y="-667.8" font-family="Times,serif" font-size="14.00">id:</text>
<text text-anchor="start" x="98.5" y="-667.8" font-family="Helvetica,sans-Serif" font-style="oblique" font-size="10.00">BIGINT</text>
<polygon fill="none" stroke="black" points="63.5,-639 63.5,-660 152.5,-660 152.5,-639 63.5,-639"/>
<text text-anchor="start" x="66.5" y="-646.8" font-family="Times,serif" font-size="14.00">name:</text>
<text text-anchor="start" x="100.5" y="-646.8" font-family="Helvetica,sans-Serif" font-style="oblique" font-size="10.00">VARCHAR</text>
</g>
<!-- hibernate_sequence -->
<g id="node7" class="node">
<title>hibernate_sequence</title>
<polygon fill="#dddddd" stroke="transparent" points="51.5,-750 51.5,-771 164.5,-771 164.5,-750 51.5,-750"/>
<polygon fill="none" stroke="black" points="51.5,-750 51.5,-771 164.5,-771 164.5,-750 51.5,-750"/>
<text text-anchor="start" x="54.5" y="-756.8" font-family="Times,serif" font-size="14.00">hibernate_sequence</text>
<polygon fill="none" stroke="black" points="51.5,-729 51.5,-750 164.5,-750 164.5,-729 51.5,-729"/>
<text text-anchor="start" x="65.5" y="-736.8" font-family="Times,serif" font-size="14.00">next_val:</text>
<text text-anchor="start" x="116.5" y="-736.8" font-family="Helvetica,sans-Serif" font-style="oblique" font-size="10.00">BIGINT</text>
</g>
<!-- monsters -->
<g id="node8" class="node">
<title>monsters</title>
<polygon fill="#dddddd" stroke="transparent" points="53.5,-1007 53.5,-1028 161.5,-1028 161.5,-1007 53.5,-1007"/>
<polygon fill="none" stroke="black" points="53.5,-1007 53.5,-1028 161.5,-1028 161.5,-1007 53.5,-1007"/>
<text text-anchor="start" x="82.5" y="-1013.8" font-family="Times,serif" font-size="14.00">monsters</text>
<polygon fill="none" stroke="black" points="53.5,-986 53.5,-1007 161.5,-1007 161.5,-986 53.5,-986"/>
<text text-anchor="start" x="83" y="-993.8" font-family="Times,serif" font-size="14.00">id:</text>
<text text-anchor="start" x="98" y="-993.8" font-family="Helvetica,sans-Serif" font-style="oblique" font-size="10.00">BIGINT</text>
<polygon fill="none" stroke="black" points="53.5,-965 53.5,-986 161.5,-986 161.5,-965 53.5,-965"/>
<text text-anchor="start" x="79.5" y="-972.8" font-family="Times,serif" font-size="14.00">agility:</text>
<text text-anchor="start" x="118.5" y="-972.8" font-family="Helvetica,sans-Serif" font-style="oblique" font-size="10.00">INT</text>
<polygon fill="none" stroke="black" points="53.5,-944 53.5,-965 161.5,-965 161.5,-944 53.5,-944"/>
<text text-anchor="start" x="61" y="-951.8" font-family="Times,serif" font-size="14.00">armor_bonus:</text>
<text text-anchor="start" x="137" y="-951.8" font-family="Helvetica,sans-Serif" font-style="oblique" font-size="10.00">INT</text>
<polygon fill="none" stroke="black" points="53.5,-923 53.5,-944 161.5,-944 161.5,-923 53.5,-923"/>
<text text-anchor="start" x="73" y="-930.8" font-family="Times,serif" font-size="14.00">empathy:</text>
<text text-anchor="start" x="125" y="-930.8" font-family="Helvetica,sans-Serif" font-style="oblique" font-size="10.00">INT</text>
<polygon fill="none" stroke="black" points="53.5,-902 53.5,-923 161.5,-923 161.5,-902 53.5,-902"/>
<text text-anchor="start" x="67.5" y="-909.8" font-family="Times,serif" font-size="14.00">movement:</text>
<text text-anchor="start" x="130.5" y="-909.8" font-family="Helvetica,sans-Serif" font-style="oblique" font-size="10.00">INT</text>
<polygon fill="none" stroke="black" points="53.5,-881 53.5,-902 161.5,-902 161.5,-881 53.5,-881"/>
<text text-anchor="start" x="66" y="-888.8" font-family="Times,serif" font-size="14.00">name:</text>
<text text-anchor="start" x="100" y="-888.8" font-family="Helvetica,sans-Serif" font-style="oblique" font-size="10.00">VARCHAR</text>
<polygon fill="none" stroke="black" points="53.5,-860 53.5,-881 161.5,-881 161.5,-860 53.5,-860"/>
<text text-anchor="start" x="66.5" y="-867.8" font-family="Times,serif" font-size="14.00">skills:</text>
<text text-anchor="start" x="99.5" y="-867.8" font-family="Helvetica,sans-Serif" font-style="oblique" font-size="10.00">VARCHAR</text>
<polygon fill="none" stroke="black" points="53.5,-839 53.5,-860 161.5,-860 161.5,-839 53.5,-839"/>
<text text-anchor="start" x="75" y="-846.8" font-family="Times,serif" font-size="14.00">strength:</text>
<text text-anchor="start" x="123" y="-846.8" font-family="Helvetica,sans-Serif" font-style="oblique" font-size="10.00">INT</text>
<polygon fill="none" stroke="black" points="53.5,-818 53.5,-839 161.5,-839 161.5,-818 53.5,-818"/>
<text text-anchor="start" x="56.5" y="-825.8" font-family="Times,serif" font-size="14.00">weapon_bonus:</text>
<text text-anchor="start" x="141.5" y="-825.8" font-family="Helvetica,sans-Serif" font-style="oblique" font-size="10.00">INT</text>
<polygon fill="none" stroke="black" points="53.5,-797 53.5,-818 161.5,-818 161.5,-797 53.5,-797"/>
<text text-anchor="start" x="85.5" y="-804.8" font-family="Times,serif" font-size="14.00">wits:</text>
<text text-anchor="start" x="112.5" y="-804.8" font-family="Helvetica,sans-Serif" font-style="oblique" font-size="10.00">INT</text>
</g>
</g>
</svg>
